HIERARCHY
ROOT hip
{
	OFFSET 0.000000 0.000000 0.000000
	CHANNELS 6 Xposition Yposition Zposition Xrotation Zrotation Yrotation 
	JOINT abdomen
	{
		OFFSET 0.000000 3.422050 0.000000
		CHANNELS 3 Xrotation Zrotation Yrotation 
		JOINT chest
		{
			OFFSET 0.000000 8.486693 -0.684411
			CHANNELS 3 Xrotation Zrotation Yrotation 
			JOINT neck
			{
				OFFSET 0.000000 10.266162 -0.273764
				CHANNELS 3 Xrotation Zrotation Yrotation 
				JOINT head
				{
					OFFSET 0.000000 3.148285 0.000000
					CHANNELS 3 Xrotation Zrotation Yrotation 
					End Site
					{
						OFFSET 0.000000 3.148289 0.000000
					}
				}
			}
			JOINT lCollar
			{
				OFFSET 3.422053 6.707223 -0.821293
				CHANNELS 3 Yrotation Zrotation Xrotation 
				JOINT lShldr
				{
					OFFSET 3.285171 0.000000 0.000000
					CHANNELS 3 Zrotation Yrotation Xrotation 
					JOINT lForeArm
					{
						OFFSET 10.129278 0.000000 0.000000
						CHANNELS 3 Yrotation Zrotation Xrotation 
						JOINT lHand
						{
							OFFSET 8.486692 0.000000 0.000000
							CHANNELS 3 Zrotation Yrotation Xrotation 
							End Site
							{
								OFFSET 4.106464 0.000000 0.000000
							}
						}
					}
				}
			}
			JOINT rCollar
			{
				OFFSET -3.558935 6.707223 -0.821293
				CHANNELS 3 Yrotation Zrotation Xrotation 
				JOINT rShldr
				{
					OFFSET -3.148289 0.000000 0.000000
					CHANNELS 3 Zrotation Yrotation Xrotation 
					JOINT rForeArm
					{
						OFFSET -10.266159 0.000000 0.000000
						CHANNELS 3 Yrotation Zrotation Xrotation 
						JOINT rHand
						{
							OFFSET -8.349810 0.000000 0.000000
							CHANNELS 3 Zrotation Yrotation Xrotation 
							End Site
							{
								OFFSET -4.106464 0.000000 0.000000
							}
						}
					}
				}
			}
		}
	}
	JOINT lThigh
	{
		OFFSET 5.338403 -1.642589 1.368821
		CHANNELS 3 Xrotation Zrotation Yrotation 
		JOINT lShin
		{
			OFFSET -2.053232 -20.121670 0.000000
			CHANNELS 3 Xrotation Zrotation Yrotation 
			JOINT lFoot
			{
				OFFSET 0.000000 -19.300380 -1.231939
				CHANNELS 3 Xrotation Yrotation Zrotation 
				End Site
				{
					OFFSET 0.000000 -2.463878 4.653993
				}
			}
		}
	}
	JOINT rThigh
	{
		OFFSET -5.338403 -1.642589 1.368821
		CHANNELS 3 Xrotation Zrotation Yrotation 
		JOINT rShin
		{
			OFFSET 2.053232 -20.121670 0.000000
			CHANNELS 3 Xrotation Zrotation Yrotation 
			JOINT rFoot
			{
				OFFSET 0.000000 -19.300380 -1.231939
				CHANNELS 3 Xrotation Yrotation Zrotation 
				End Site
				{
					OFFSET 0.000000 -2.463878 4.653993
				}
			}
		}
	}
}
MOTION
Frames: 11
Frame Time: 0.033264
0.000000 43.528500 0.000000 0.000000 0.000000 0.000000 0.000000 0.000000 0.000000 0.000000 0.000000 0.000000 0.000000 0.000000 0.000000 0.000000 0.000000 0.000000 0.000000 0.000000 0.000000 0.000000 0.000000 0.000000 0.000000 0.000000 0.000000 0.000000 0.000000 0.000000 0.000000 0.000000 0.000000 0.000000 0.000000 0.000000 0.000000 0.000000 0.000000 0.000000 0.000000 0.000000 0.000000 0.000000 0.000000 0.000000 0.000000 0.000000 0.000000 0.000000 0.000000 0.000000 0.000000 0.000000 0.000000 0.000000 0.000000 0.000000 0.000000 0.000000 
-0.657827 16.479832 4.923128 25.974592 0.551265 179.516052 22.984707 0.000000 0.000000 18.301571 3.392653 -2.637772 17.353140 4.161707 0.332698 -0.230164 8.013575 0.192460 -0.000049 11.002516 6.990519 -65.011559 -76.002884 35.009941 -33.968716 3.536777 -52.797703 -2.002532 -18.003267 -16.001005 -0.003271 -11.006244 6.990227 69.980972 77.999603 34.979519 23.965477 -3.536745 -52.800533 24.998369 17.996712 -0.001123 -65.395592 24.521576 -21.118549 51.972359 -40.673584 16.635141 12.785825 2.943170 -4.521487 -86.556107 -33.195812 28.491701 93.483559 20.333948 0.242866 -6.313228 -3.752853 3.639643 
-0.657827 16.479832 4.923128 25.974592 0.551265 179.516052 22.984707 0.000000 0.000000 18.301571 3.392653 -2.637772 17.103170 4.139516 0.414162 -0.230164 8.013575 0.192460 -0.000049 11.002516 6.990519 -64.312279 -75.841690 34.621544 -33.968716 3.536777 -52.797703 -2.002532 -18.003267 -16.001005 -0.003271 -11.006245 6.990227 70.256218 78.147743 35.036598 23.930511 -3.523557 -52.627903 24.998369 17.996712 -0.001124 -65.395592 24.521576 -21.118549 51.972359 -40.673584 16.635141 12.785825 2.943170 -4.521487 -86.556107 -33.195812 28.491701 93.483559 20.333948 0.242866 -6.313228 -3.752853 3.639643 
-0.657827 16.479832 4.923128 25.974592 0.551265 179.516052 22.984707 0.000000 0.000000 18.301571 3.392653 -2.637772 16.852961 4.117661 0.495788 -0.230164 8.013575 0.192460 -0.000049 11.002516 6.990519 -63.624454 -75.679306 34.245068 -33.968716 3.536777 -52.797703 -2.002532 -18.003267 -16.001007 -0.003271 -11.006244 6.990227 70.535934 78.296028 35.097954 23.895502 -3.510471 -52.455204 24.998369 17.996712 -0.001123 -65.395592 24.521576 -21.118549 51.972359 -40.673584 16.635141 12.785825 2.943170 -4.521488 -86.556107 -33.195812 28.491701 93.483559 20.333950 0.242867 -6.313228 -3.752853 3.639643 
-0.657827 16.479832 4.923128 25.974594 0.551265 179.516052 22.984707 0.000000 0.000000 18.301571 3.392653 -2.637772 16.602520 4.096143 0.577576 -0.230164 8.013575 0.192460 -0.000049 11.002517 6.990519 -62.947521 -75.515495 33.880028 -33.968716 3.536777 -52.797703 -2.002533 -18.003269 -16.001005 -0.003271 -11.006245 6.990227 70.820206 78.444290 35.163742 23.860428 -3.497482 -52.282406 24.998369 17.996712 -0.001124 -65.395592 24.521574 -21.118551 51.972366 -40.673588 16.635141 12.785825 2.943170 -4.521487 -86.556107 -33.195812 28.491701 93.483559 20.333948 0.242866 -6.313229 -3.752853 3.639643 
-0.657827 16.479832 4.923128 25.974594 0.551265 179.516052 22.984711 0.000000 0.000000 18.301573 3.392653 -2.637773 16.351847 4.074965 0.659522 -0.230164 8.013575 0.192460 -0.000049 11.002516 6.990519 -62.281410 -75.350487 33.526279 -33.968716 3.536777 -52.797703 -2.002532 -18.003269 -16.001005 -0.003271 -11.006244 6.990227 71.109375 78.592743 35.234222 23.825304 -3.484594 -52.109524 24.998369 17.996712 -0.001123 -65.395592 24.521576 -21.118549 51.972366 -40.673588 16.635141 12.785826 2.943170 -4.521487 -86.556114 -33.195812 28.491703 93.483559 20.333950 0.242865 -6.313229 -3.752853 3.639643 
-0.657827 16.479832 4.923128 25.974594 0.551265 179.516052 22.984709 0.000000 0.000000 18.301573 3.392653 -2.637773 16.100950 4.054129 0.741625 -0.230164 8.013576 0.192460 -0.000049 11.002517 6.990520 -61.625732 -75.184212 33.183475 -33.968716 3.536776 -52.797703 -2.002532 -18.003267 -16.001005 -0.003271 -11.006245 6.990228 71.403419 78.741196 35.309444 23.790123 -3.471806 -51.936573 24.998371 17.996714 -0.001124 -65.395592 24.521576 -21.118549 51.972363 -40.673588 16.635145 12.785826 2.943171 -4.521487 -86.556107 -33.195812 28.491701 93.483559 20.333950 0.242867 -6.313228 -3.752853 3.639643 
-0.657827 16.479832 4.923128 25.974588 0.551265 179.516052 22.984707 0.000000 0.000000 18.301571 3.392653 -2.637772 15.849825 4.033634 0.823882 -0.230164 8.013574 0.192460 -0.000049 11.002516 6.990518 -60.980305 -75.016808 32.851406 -33.968716 3.536777 -52.797699 -2.002532 -18.003263 -16.001003 -0.003271 -11.006242 6.990227 71.702682 78.889694 35.389732 23.754890 -3.459118 -51.763531 24.998367 17.996712 -0.001124 -65.395584 24.521576 -21.118547 51.972351 -40.673584 16.635141 12.785824 2.943170 -4.521487 -86.556091 -33.195808 28.491693 93.483559 20.333948 0.242866 -6.313228 -3.752853 3.639643 
-0.657827 16.479832 4.923128 25.974590 0.551265 179.516052 22.984707 0.000000 0.000000 18.301571 3.392653 -2.637772 15.598477 4.013483 0.906292 -0.230164 8.013574 0.192460 -0.000049 11.002516 6.990518 -60.344860 -74.848251 32.529804 -33.968712 3.536776 -52.797703 -2.002532 -18.003267 -16.001005 -0.003271 -11.006244 6.990227 72.007339 79.038277 35.475243 23.719604 -3.446532 -51.590412 24.998367 17.996712 -0.001124 -65.395584 24.521572 -21.118547 51.972351 -40.673584 16.635143 12.785825 2.943170 -4.521487 -86.556107 -33.195812 28.491701 93.483559 20.333948 0.242867 -6.313227 -3.752853 3.639643 
-0.657827 16.479832 4.923128 25.974590 0.551265 179.516052 22.984707 0.000000 0.000000 18.301571 3.392653 -2.637772 15.346914 3.993679 0.988852 -0.230164 8.013575 0.192460 -0.000049 11.002516 6.990519 -59.719131 -74.678581 32.218414 -33.968716 3.536778 -52.797703 -2.002532 -18.003265 -16.001003 -0.003271 -11.006244 6.990227 72.317726 79.186981 35.566288 23.684267 -3.434046 -51.417213 24.998367 17.996712 -0.001124 -65.395592 24.521576 -21.118549 51.972359 -40.673584 16.635141 12.785824 2.943170 -4.521487 -86.556107 -33.195812 28.491701 93.483559 20.333948 0.242866 -6.313228 -3.752853 3.639643 
-0.657827 16.479832 4.923128 25.974592 0.551265 179.516052 22.984707 0.000000 0.000000 18.301571 3.392653 -2.637772 15.095130 3.974220 1.071560 -0.230164 8.013575 0.192460 -0.000049 11.002516 6.990519 -59.102871 -74.507851 31.916969 -33.968712 3.536776 -52.797703 -2.002532 -18.003267 -16.001005 -0.003271 -11.006244 6.990227 72.633896 79.335670 35.662987 23.648876 -3.421662 -51.243927 24.998367 17.996712 -0.001124 -65.395584 24.521572 -21.118547 51.972359 -40.673584 16.635141 12.785825 2.943170 -4.521487 -86.556107 -33.195808 28.491701 93.483559 20.333948 0.242866 -6.313228 -3.752853 3.639643 
